<svg width="548" height="511" viewBox="0 0 548 511" fill="none" xmlns="http://www.w3.org/2000/svg">
<path d="M235.516 139.609L234.227 140.659C234.663 140.292 235.116 139.947 235.581 139.621C235.559 139.617 235.537 139.613 235.516 139.609Z" fill="#D9EAEF"/>
<path d="M392.432 139.663C389.694 135.127 386.45 130.284 381.369 128.802C375.484 127.087 369.44 130.495 364.313 133.857C348.98 143.914 334.213 154.812 320.082 166.503L320.098 166.679C331.099 165.919 342.101 165.159 353.103 164.399C361.052 163.849 369.274 163.225 376.298 159.458C378.964 158.028 381.562 156.119 384.583 155.986C388.336 155.821 391.608 158.446 394.179 161.189C409.39 177.415 413.792 202.228 430.857 216.484C420.097 189.9 407.248 164.212 392.432 139.663Z" fill="url(#paint0_linear_3989_15883)"/>
<path d="M485.931 277.29C484.249 275.162 483.561 274.664 481.902 272.516C468.392 255.012 455.693 236.917 443.807 218.231C435.733 205.54 428.059 192.606 420.786 179.427C417.323 173.162 413.956 166.848 410.683 160.484C408.143 155.55 405.66 150.587 403.234 145.593C402.54 144.167 401.866 142.735 401.195 141.299C399.614 137.922 398.063 134.529 396.397 131.198C394.499 127.401 392.188 123.421 388.703 120.87C387.116 119.662 385.22 118.931 383.234 118.762C380.396 118.579 377.778 119.753 375.317 121.034C357.292 130.526 340.468 142.148 325.204 155.652C309.917 169.101 296.253 184.295 284.491 200.924C284.131 201.439 283.28 200.947 283.643 200.429C285.073 198.403 286.532 196.399 288.019 194.416C306.508 169.784 329.178 148.601 354.993 131.837C359.336 129.017 363.761 126.33 368.267 123.775C370.539 122.487 372.82 121.215 375.14 120.021C377.415 118.851 379.83 117.799 382.429 117.759C391.272 117.622 395.851 127.654 398.996 134.404C399.984 136.528 400.984 138.646 401.997 140.758C405.823 148.774 409.796 156.716 413.916 164.586C416.459 169.444 419.058 174.275 421.712 179.076C429.973 194.03 438.752 208.68 448.052 223.028C460.37 242.033 472.591 258.822 486.625 276.595C487.011 277.086 486.32 277.788 485.931 277.29Z" fill="#42494E"/>
<path d="M324.33 150.698C323.816 150.125 323.306 149.551 322.789 148.977C318.711 144.46 314.335 139.994 308.735 137.404C306.065 136.13 303.151 135.454 300.193 135.421C297.137 135.431 294.149 136.234 291.324 137.358C289.989 137.893 288.683 138.499 287.397 139.145C285.927 139.886 284.484 140.676 283.047 141.473C280.35 142.968 277.689 144.528 275.062 146.154C269.835 149.39 264.772 152.873 259.873 156.603C257.333 158.537 254.846 160.535 252.411 162.596C250.146 164.511 247.927 166.477 245.754 168.494C245.289 168.923 244.595 168.228 245.06 167.799C245.633 167.265 246.212 166.733 246.791 166.209C248.428 164.727 250.09 163.274 251.779 161.849C254.859 159.245 258.018 156.743 261.257 154.341C266.294 150.603 271.504 147.119 276.888 143.889C279.578 142.276 282.305 140.731 285.07 139.253C285.904 138.807 286.749 138.371 287.603 137.958C289.541 136.979 291.555 136.158 293.625 135.503C296.557 134.553 299.659 134.247 302.72 134.608C305.675 135.038 308.522 136.025 311.111 137.516C316.61 140.594 320.874 145.355 325.024 150C325.443 150.472 324.752 151.171 324.33 150.698Z" fill="#42494E"/>
<path d="M436.989 197.514L450.165 192.687L456.706 190.29C458.837 189.51 460.962 188.621 463.164 188.062C465.078 187.514 467.11 187.54 469.01 188.137C470.704 188.765 472.254 189.728 473.569 190.968C474.912 192.207 476.162 193.544 477.309 194.968C478.733 196.683 480.136 198.416 481.546 200.142C487.363 207.269 493.142 214.426 498.883 221.615C504.624 228.803 510.326 236.022 515.99 243.271C521.668 250.538 527.307 257.836 532.907 265.163C533.593 266.061 534.279 266.959 534.964 267.858C535.342 268.354 536.195 267.865 535.811 267.361C530.17 259.96 524.49 252.589 518.77 245.248C513.036 237.889 507.262 230.562 501.449 223.266C495.636 215.97 489.784 208.706 483.892 201.473C482.424 199.671 480.954 197.871 479.481 196.073C478.239 194.557 477.011 193.024 475.649 191.612C473.148 189.021 470.023 186.731 466.283 186.669C464.084 186.633 461.955 187.332 459.912 188.072C457.71 188.87 455.512 189.684 453.313 190.49L440.045 195.351L436.728 196.566C436.14 196.782 436.394 197.732 436.989 197.514H436.989Z" fill="#42494E"/>
<path d="M307.004 143.09C300.309 139.643 291.735 140.318 285.582 144.624C297.318 146.653 308.925 149.366 320.344 152.752C315.602 149.968 311.893 145.607 307.004 143.09Z" fill="url(#paint1_linear_3989_15883)"/>
<path d="M285.516 144.609L284.227 145.659C284.663 145.292 285.116 144.947 285.581 144.621C285.559 144.617 285.537 144.613 285.516 144.609Z" fill="#D9EAEF"/>
<path d="M473.071 197.563C471.774 195.982 470.372 194.326 468.432 193.684L466.621 193.755C480.408 218.159 499.028 239.483 521.338 256.419C505.249 236.8 489.16 217.182 473.071 197.563Z" fill="#D9EAEF"/>
<path d="M402.911 318.462C402.863 318.465 402.814 318.46 402.767 318.446L367.072 308.022C366.966 307.991 366.877 307.92 366.825 307.823C366.772 307.727 366.759 307.613 366.79 307.508C366.821 307.402 366.892 307.313 366.988 307.26C367.085 307.207 367.198 307.195 367.303 307.226L402.999 317.649C403.092 317.677 403.173 317.736 403.227 317.817C403.281 317.898 403.305 317.995 403.294 318.092C403.284 318.189 403.24 318.279 403.17 318.347C403.1 318.414 403.008 318.455 402.911 318.462L402.911 318.462Z" fill="black"/>
<path d="M328.943 295.352C328.895 295.356 328.846 295.351 328.799 295.338L293.041 285.129C292.936 285.099 292.846 285.028 292.793 284.932C292.74 284.836 292.726 284.723 292.756 284.617C292.787 284.511 292.857 284.422 292.953 284.368C293.049 284.315 293.163 284.301 293.268 284.332L329.026 294.54C329.119 294.567 329.2 294.625 329.255 294.706C329.309 294.787 329.334 294.884 329.324 294.981C329.314 295.078 329.271 295.168 329.201 295.236C329.131 295.304 329.04 295.345 328.943 295.352L328.943 295.352Z" fill="black"/>
<path d="M248.404 271.665C248.355 271.669 248.307 271.664 248.26 271.65L212.502 261.442C212.397 261.412 212.307 261.341 212.254 261.245C212.2 261.149 212.187 261.035 212.217 260.929C212.248 260.824 212.318 260.734 212.414 260.681C212.51 260.627 212.623 260.614 212.729 260.644L248.487 270.852C248.58 270.879 248.661 270.938 248.716 271.019C248.77 271.099 248.795 271.196 248.785 271.293C248.775 271.39 248.732 271.481 248.662 271.549C248.592 271.617 248.501 271.658 248.404 271.665L248.404 271.665Z" fill="black"/>
<path d="M255.551 215.994C254.075 215.665 252.581 215.405 251.105 215.224L250.89 215.197C241.095 214.035 232.825 218.111 231.654 224.681L231.446 225.87C231.316 226.622 231.176 227.43 231.009 228.324C230.929 228.766 231.374 229.217 232.021 229.362L467.617 281.874C484.253 285.46 500.836 289.003 516.903 292.404C519.909 293.082 522.955 293.573 526.022 293.875C530.612 294.262 533.972 293.752 536.296 292.315L536.297 292.315C539.185 290.534 539.912 287.642 540.505 284.324C541.701 277.624 542.974 270.59 544.243 263.577C545.36 257.396 546.475 251.231 547.532 245.327C548.153 241.822 548.491 238.681 546.323 235.74C543.973 232.557 538.938 230.088 531.36 228.399C531.269 228.378 531.178 228.358 531.085 228.338C507.314 223.141 481.68 227.27 467.3 238.612C465.644 239.918 464.051 241.356 462.511 242.747C460.232 244.902 457.804 246.894 455.243 248.708C453.83 249.678 452.33 250.517 450.763 251.215C450.656 251.267 450.533 251.322 450.406 251.371C450.11 251.504 449.804 251.628 449.509 251.733C447.793 252.393 446.011 252.87 444.193 253.156L444.012 253.183C443.875 253.207 443.727 253.228 443.581 253.244C442.539 253.384 441.49 253.466 440.439 253.491C435.898 253.62 430.953 252.792 425.742 251.028C420.933 249.381 416.339 247.166 412.058 244.431C407.515 241.535 403.388 238.267 399.397 235.107C397.644 233.718 395.831 232.283 394.009 230.899C393.666 230.639 393.329 230.384 392.987 230.128C390.755 228.465 388.712 227.047 386.74 225.794C381.9 222.699 376.648 220.298 371.138 218.659C365.315 216.971 359.953 216.511 355.206 217.288C353.887 217.502 352.588 217.82 351.319 218.238C345.471 220.163 341.273 223.993 337.214 227.697C332.165 232.303 326.943 237.067 318.476 238.253C308.705 239.624 295.863 235.287 287.102 230.77C284.348 229.35 281.623 227.815 278.987 226.33C277.923 225.731 276.858 225.133 275.791 224.538C273.693 223.371 271.969 222.451 270.364 221.641L269.857 221.384C269.574 221.243 269.292 221.101 269.003 220.962C267.091 220.025 265.296 219.223 263.51 218.508L263.088 218.337C262.239 218.008 261.442 217.715 260.657 217.442L260.343 217.333C258.771 216.801 257.171 216.353 255.551 215.994Z" fill="url(#paint2_linear_3989_15883)"/>
<path d="M531.595 294C531.555 294 531.515 293.996 531.476 293.988L104.626 204.137C104.477 204.105 104.347 204.015 104.264 203.888C104.182 203.76 104.153 203.605 104.184 203.456C104.216 203.308 104.305 203.178 104.432 203.094C104.56 203.011 104.715 202.981 104.864 203.012L531.714 292.862C531.853 292.891 531.977 292.971 532.061 293.086C532.145 293.201 532.184 293.343 532.169 293.484C532.154 293.626 532.087 293.757 531.981 293.852C531.875 293.947 531.738 294 531.595 294Z" fill="url(#paint3_linear_3989_15883)"/>
<path d="M447.689 106.237C436.199 104.679 423.081 110.909 420.103 122.149C419.352 120.151 417.988 118.443 416.207 117.273C414.425 116.104 412.32 115.532 410.193 115.642C408.067 115.751 406.031 116.536 404.378 117.882C402.726 119.229 401.543 121.068 401 123.133L402.315 124.078C426.938 129.419 452.426 129.304 477 123.739C469.008 115.313 459.179 107.795 447.689 106.237Z" fill="#D9EAEF"/>
<path d="M130 88C154.301 88 174 68.3005 174 44C174 19.6995 154.301 0 130 0C105.699 0 86 19.6995 86 44C86 68.3005 105.699 88 130 88Z" fill="url(#paint4_radial_3989_15883)" fill-opacity="0.5"/>
<path d="M195.35 104.32C192.612 99.7834 189.368 94.94 184.287 93.4587C178.402 91.7434 172.358 95.151 167.231 98.5136C151.898 108.57 137.131 119.469 123 131.159L123.015 131.335C134.017 130.575 145.019 129.815 156.021 129.055C163.97 128.506 172.192 127.881 179.216 124.114C181.882 122.685 184.48 120.775 187.501 120.642C191.254 120.477 194.526 123.102 197.097 125.845C212.308 142.071 216.71 166.885 233.775 181.14C223.015 154.556 210.166 128.869 195.35 104.32Z" fill="url(#paint5_linear_3989_15883)"/>
<path d="M285.237 229.838C283.647 227.827 282.998 227.355 281.43 225.325C268.663 208.775 256.664 191.666 245.431 173.998C237.802 161.999 230.551 149.769 223.678 137.309C220.406 131.385 217.223 125.415 214.131 119.398C211.731 114.733 209.385 110.04 207.092 105.319C206.436 103.97 205.799 102.616 205.165 101.258C203.672 98.0652 202.205 94.8569 200.631 91.7075C198.838 88.1179 196.654 84.3547 193.36 81.943C191.862 80.8005 190.069 80.1091 188.193 79.9499C185.511 79.7763 183.037 80.886 180.712 82.098C163.679 91.0728 147.781 102.062 133.357 114.829C118.912 127.545 106 141.911 94.8844 157.634C94.5444 158.121 93.7403 157.656 94.0835 157.166C95.435 155.251 96.8133 153.356 98.2184 151.481C115.69 128.191 137.112 108.163 161.506 92.3119C165.61 89.6461 169.792 87.1053 174.05 84.6895C176.196 83.4713 178.352 82.2685 180.545 81.1402C182.694 80.0336 184.976 79.0385 187.432 79.0013C195.788 78.8711 200.115 88.3566 203.087 94.7391C204.021 96.7478 204.966 98.7503 205.923 100.747C209.538 108.326 213.293 115.835 217.186 123.276C219.589 127.87 222.045 132.437 224.553 136.977C232.359 151.115 240.655 164.968 249.443 178.533C261.083 196.503 272.631 212.377 285.893 229.181C286.258 229.646 285.605 230.31 285.237 229.838Z" fill="#42494E"/>
<path d="M129.5 70C144.136 70 156 57.6878 156 42.5C156 27.3122 144.136 15 129.5 15C114.864 15 103 27.3122 103 42.5C103 57.6878 114.864 70 129.5 70Z" fill="url(#paint6_radial_3989_15883)"/>
<path d="M129.5 70C144.136 70 156 57.6878 156 42.5C156 27.3122 144.136 15 129.5 15C114.864 15 103 27.3122 103 42.5C103 57.6878 114.864 70 129.5 70Z" fill="url(#paint7_radial_3989_15883)"/>
<path d="M194.532 53.2474C182.588 51.6186 168.953 58.1317 165.857 69.8834C165.077 67.794 163.659 66.0088 161.807 64.7859C159.955 63.563 157.766 62.9655 155.556 63.08C153.346 63.1944 151.229 64.0147 149.512 65.4225C147.794 66.8302 146.564 68.7524 146 70.9115L147.367 71.8995C172.962 77.4838 199.456 77.3629 225 71.5454C216.692 62.7364 206.475 54.8761 194.532 53.2474Z" fill="#D9EAEF"/>
<path d="M125.532 76.2474C113.588 74.6186 99.9525 81.1317 96.857 92.8834C96.0769 90.794 94.6586 89.0088 92.807 87.7859C90.9554 86.5629 88.7664 85.9655 86.5563 86.08C84.3462 86.1944 82.2293 87.0147 80.5115 88.4225C78.7938 89.8302 77.564 91.7524 77 93.9115L78.3674 94.8995C103.962 100.484 130.456 100.363 156 94.5454C147.692 85.7364 137.475 77.8761 125.532 76.2474Z" fill="#D9EAEF"/>
<path d="M480.983 304.915C480.567 304.495 480.247 303.989 480.046 303.432C479.846 302.875 479.77 302.281 479.823 301.691C479.877 301.102 480.059 300.531 480.357 300.02C480.654 299.508 481.06 299.068 481.546 298.731L475.109 266.707L482.217 268.993L487.369 299.968C487.88 300.823 488.061 301.836 487.877 302.815C487.693 303.795 487.156 304.673 486.369 305.282C485.582 305.892 484.599 306.191 483.607 306.124C482.614 306.056 481.681 305.626 480.983 304.915Z" fill="#9E616A"/>
<path d="M471.482 237.16L475.892 233.826C475.892 233.826 479.782 233.55 480.471 240.577C481.16 247.605 482.575 261.301 482.575 261.301L489.323 292.61L479.982 294.664L472.754 260.876L468.418 250.843L471.482 237.16Z" fill="#2F2E41"/>
<path d="M478.753 288.285L453.903 287.87L451.832 270.859H478.753V288.285Z" fill="#9E616A"/>
<path d="M455.779 392.35L450.042 392.35L447.312 370.184L455.779 370.184L455.779 392.35Z" fill="#9E616A"/>
<path d="M492.326 384.393L486.59 384.353L484.016 362.168L491.477 363.883L492.326 384.393Z" fill="#9E616A"/>
<path d="M474.385 256.21L475.684 259.595L475.425 262.981L449.984 271.807L451.247 256.991L454.107 253.605L474.385 256.21Z" fill="#FFB6B6"/>
<path d="M463.469 225.743C468.487 225.743 472.555 221.668 472.555 216.641C472.555 211.614 468.487 207.539 463.469 207.539C458.451 207.539 454.383 211.614 454.383 216.641C454.383 221.668 458.451 225.743 463.469 225.743Z" fill="#9E616A"/>
<path d="M458.343 403.265H454.272L453.546 399.416L451.685 403.265H440.888C440.371 403.265 439.867 403.1 439.45 402.793C439.033 402.485 438.725 402.053 438.571 401.558C438.417 401.063 438.425 400.532 438.594 400.041C438.762 399.551 439.083 399.128 439.509 398.834L448.131 392.869V388.977L457.199 389.519L458.343 403.265Z" fill="#2F2E41"/>
<path d="M495.337 395.325L491.267 395.296L490.567 391.441L488.679 395.278L477.883 395.203C477.365 395.199 476.862 395.03 476.448 394.72C476.033 394.409 475.728 393.975 475.578 393.479C475.427 392.983 475.439 392.451 475.611 391.963C475.783 391.474 476.107 391.053 476.535 390.761L485.198 384.857L485.225 380.965L494.29 381.571L495.337 395.325Z" fill="#2F2E41"/>
<path d="M494.112 368.617L489.935 343.051L484.965 307.786C488.604 301.015 480.409 279.988 480.409 279.988L479.252 280.044L453.068 284.992L453.074 284.967C447.718 299.599 445.944 306.828 446.237 322.41L447.292 378.424H446.961C446.412 378.424 445.886 378.643 445.497 379.032C445.109 379.421 444.891 379.948 444.891 380.498C444.891 381.049 445.109 381.576 445.497 381.965C445.886 382.354 446.412 382.573 446.961 382.573H457.316C457.865 382.573 458.392 382.354 458.78 381.965C459.168 381.576 459.387 381.049 459.387 380.498C459.387 379.948 459.168 379.421 458.78 379.032C458.392 378.643 457.865 378.424 457.316 378.424H457.049L466.553 311.728L474.611 339.732L483.722 368.359C480.409 367.53 480.923 369.452 480.923 370.541C480.923 371.091 481.142 371.619 481.53 372.008C481.918 372.397 482.445 372.616 482.994 372.616H493.348C493.83 372.616 494.297 372.448 494.668 372.141C495.039 371.834 495.292 371.406 495.382 370.933C495.473 370.459 495.396 369.968 495.164 369.545C494.932 369.123 494.56 368.794 494.112 368.617Z" fill="#2F2E41"/>
<path d="M482.448 281.075L481.619 272.777C481.533 272.438 481.342 272.136 481.074 271.913C480.806 271.689 480.474 271.557 480.126 271.534C479.781 267.582 478.329 250.529 478.242 249.785L478.239 249.754L477.578 235.624C477.555 235.111 477.343 234.624 476.983 234.258C476.624 233.891 476.143 233.67 475.631 233.636L472.143 233.408C472.095 233.406 472.05 233.386 472.017 233.352C471.984 233.317 471.965 233.271 471.965 233.223C471.965 232.837 471.889 232.455 471.742 232.099C471.594 231.742 471.378 231.418 471.106 231.146C470.834 230.873 470.51 230.656 470.154 230.509C469.799 230.361 469.417 230.285 469.032 230.285H458.706C458.037 230.285 457.392 230.53 456.89 230.974C456.389 231.417 456.066 232.028 455.983 232.693C455.978 232.739 455.957 232.781 455.922 232.812C455.888 232.842 455.843 232.858 455.797 232.857L455.796 232.857C454.623 232.833 453.48 233.231 452.574 233.979C451.669 234.727 451.061 235.775 450.861 236.933C449.449 245.161 446.62 263.835 448.019 274.216C448.506 277.83 447.456 274.968 447.272 277.992C447.254 278.284 447.293 278.577 447.388 278.854C447.483 279.131 447.632 279.386 447.825 279.605C446.973 279.853 446.642 280.776 446.861 281.645L446.68 281.6C446.787 282.027 447.059 282.393 447.437 282.619C447.814 282.845 448.265 282.911 448.691 282.804L480.418 274.792C481.305 274.568 482.671 281.963 482.448 281.075Z" fill="#2F2E41"/>
<path d="M447.526 304.915C447.943 304.495 448.263 303.989 448.464 303.432C448.664 302.875 448.74 302.281 448.687 301.691C448.633 301.102 448.451 300.531 448.153 300.02C447.856 299.508 447.45 299.068 446.964 298.731L453.401 266.707L446.293 268.993L441.141 299.968C440.629 300.823 440.449 301.836 440.633 302.815C440.817 303.795 441.353 304.673 442.141 305.282C442.928 305.892 443.911 306.191 444.903 306.124C445.896 306.056 446.829 305.626 447.526 304.915Z" fill="#9E616A"/>
<path d="M457.028 237.16L452.619 233.826C452.619 233.826 448.728 233.55 448.039 240.577C447.35 247.605 445.936 261.301 445.936 261.301L439.188 292.61L448.529 294.664L455.756 260.876L460.092 250.843L457.028 237.16Z" fill="#2F2E41"/>
<path d="M475.729 207.887C477.35 209.921 478.232 212.121 478.232 213.438C481.599 219.603 476.784 224.899 470.63 228.272C468.175 229.624 465.341 230.119 462.574 229.678L462.316 228.577L461.968 229.569C461.968 229.569 457.961 242.826 456.639 243.604C457.141 241.245 457.715 230.321 457.994 228.018C458.381 224.884 457.033 220.219 456.061 217.381C455.459 215.633 455.149 213.796 455.146 211.946V211.865L454.2 214.911L450.754 213.438C451.395 209.755 450.754 205.574 458.439 205.936C462.596 203.073 466.256 202.637 469.263 203.449C469.651 202.848 471.888 203.973 472.535 203.657" fill="#2F2E41"/>
<path d="M484.332 272.614C484.186 273.919 483.608 275.139 482.691 276.079C481.774 277.018 480.57 277.624 479.271 277.8L460.563 280.339C459.016 280.547 457.449 280.132 456.208 279.185C454.966 278.237 454.15 276.835 453.94 275.286L451.244 255.313C451.068 254.014 451.331 252.694 451.989 251.562L451.861 250.591C451.33 250.398 450.861 250.062 450.507 249.621C450.152 249.18 449.924 248.65 449.848 248.089C449.772 247.527 449.851 246.956 450.076 246.436C450.301 245.917 450.663 245.468 451.124 245.14L453.435 234.415C453.404 234.185 453.421 233.952 453.486 233.729C453.55 233.506 453.66 233.3 453.809 233.122C453.958 232.945 454.143 232.801 454.351 232.699C454.559 232.597 454.786 232.54 455.017 232.531C455.437 232.527 455.844 232.678 456.16 232.956C456.476 233.234 456.678 233.619 456.727 234.037L456.939 235.614C457.221 237.698 458.282 239.597 459.909 240.927C461.535 242.256 463.605 242.918 465.699 242.778C467.794 242.638 469.757 241.706 471.192 240.171C472.628 238.637 473.428 236.613 473.431 234.51C473.431 234.134 473.406 233.759 473.356 233.386L473.149 231.834C473.082 231.403 473.18 230.962 473.425 230.601C473.669 230.24 474.041 229.985 474.466 229.889C474.687 229.846 474.915 229.85 475.135 229.899C475.355 229.948 475.562 230.041 475.745 230.173C475.927 230.305 476.081 230.473 476.197 230.667C476.312 230.86 476.387 231.076 476.417 231.299L477.755 241.173C478.49 241.123 479.22 241.336 479.813 241.775C480.406 242.215 480.824 242.851 480.991 243.571C481.158 244.29 481.063 245.046 480.725 245.702C480.386 246.359 479.825 246.873 479.142 247.152C479.812 247.617 480.377 248.216 480.803 248.912C481.229 249.607 481.505 250.384 481.615 251.193L484.315 271.17C484.381 271.649 484.386 272.134 484.332 272.614Z" fill="#0467B0"/>
<path d="M451.591 251.031C451.57 250.868 451.613 250.702 451.713 250.571C451.813 250.44 451.961 250.354 452.124 250.331L477.623 246.416C477.704 246.405 477.786 246.41 477.865 246.431C477.943 246.452 478.017 246.488 478.082 246.537C478.147 246.587 478.202 246.649 478.243 246.719C478.284 246.79 478.311 246.868 478.322 246.949C478.333 247.03 478.327 247.112 478.307 247.191C478.286 247.27 478.25 247.345 478.2 247.41C478.151 247.475 478.089 247.529 478.019 247.57C477.948 247.611 477.87 247.638 477.789 247.649L452.29 251.565C452.127 251.587 451.962 251.543 451.831 251.443C451.7 251.343 451.614 251.195 451.591 251.031Z" fill="#3F3D56"/>
<path d="M454.574 261.514L453.731 255.275C453.666 254.794 453.795 254.307 454.089 253.921C454.382 253.534 454.817 253.281 455.298 253.215L479.651 250.095C480.132 250.03 480.618 250.158 481.004 250.452C481.39 250.747 481.643 251.182 481.708 251.664L482.551 257.902C482.616 258.383 482.487 258.871 482.193 259.257C481.9 259.643 481.465 259.897 480.984 259.962L471.257 261.303C471.277 261.369 471.293 261.437 471.305 261.505L472.166 267.878L480.375 266.765C480.429 266.758 480.484 266.761 480.536 266.775C480.589 266.789 480.638 266.813 480.682 266.846C480.725 266.879 480.761 266.92 480.789 266.967C480.816 267.015 480.834 267.067 480.841 267.121C480.849 267.175 480.845 267.23 480.831 267.282C480.818 267.335 480.793 267.385 480.76 267.428C480.727 267.471 480.686 267.508 480.639 267.535C480.592 267.562 480.54 267.58 480.486 267.588L472.277 268.7L468.584 269.201L460.785 270.258C460.677 270.273 460.567 270.244 460.479 270.177C460.392 270.11 460.335 270.012 460.32 269.903C460.305 269.794 460.334 269.683 460.401 269.596C460.467 269.508 460.566 269.451 460.674 269.436L468.472 268.379L467.611 262.006C467.605 261.937 467.603 261.867 467.604 261.798L456.631 263.083C456.15 263.148 455.664 263.019 455.278 262.725C454.892 262.431 454.639 261.995 454.574 261.514Z" fill="#3F3D56"/>
<path d="M427.943 374.589C427.768 374.667 427.57 374.678 427.387 374.618L0.788545 236.174C0.592438 236.11 0.429556 235.97 0.335662 235.787C0.241768 235.603 0.224537 235.389 0.287751 235.193C0.350965 234.996 0.489465 234.833 0.672829 234.739C0.856194 234.645 1.06944 234.628 1.26576 234.691L427.864 373.136C428.014 373.184 428.145 373.277 428.241 373.402C428.337 373.527 428.394 373.678 428.402 373.836C428.411 373.993 428.371 374.149 428.29 374.284C428.208 374.418 428.087 374.524 427.943 374.589Z" fill="url(#paint8_linear_3989_15883)"/>
<path d="M451.643 260.316C451.652 260.196 451.635 260.076 451.593 259.963C451.552 259.851 451.487 259.748 451.402 259.663C451.318 259.578 451.216 259.512 451.104 259.469C450.992 259.426 450.872 259.408 450.753 259.416C450.708 259.417 450.664 259.423 450.62 259.432L445.377 260.619C445.26 260.647 445.15 260.7 445.054 260.774C444.958 260.847 444.879 260.94 444.822 261.046C444.745 261.049 444.668 261.06 444.594 261.079C444.264 261.154 443.978 261.357 443.798 261.644C443.618 261.93 443.558 262.276 443.633 262.606C443.708 262.936 443.91 263.223 444.196 263.404C444.482 263.584 444.828 263.644 445.157 263.569C445.345 263.525 445.52 263.44 445.671 263.32L447.448 268.332C447.536 268.489 447.673 268.613 447.838 268.685C448.003 268.758 448.187 268.775 448.363 268.734L451.772 267.962C451.946 267.922 452.102 267.827 452.219 267.691C452.336 267.555 452.407 267.386 452.422 267.207L451.643 260.316ZM445.079 263.212C444.962 263.239 444.841 263.242 444.723 263.222C444.605 263.202 444.492 263.159 444.391 263.095C444.29 263.031 444.202 262.948 444.132 262.85C444.063 262.753 444.014 262.642 443.987 262.525C443.961 262.408 443.957 262.288 443.977 262.169C443.997 262.051 444.04 261.938 444.104 261.837C444.168 261.735 444.251 261.647 444.348 261.578C444.446 261.508 444.556 261.459 444.673 261.432C444.689 261.428 444.706 261.432 444.722 261.428C444.721 261.579 444.76 261.728 444.834 261.859L445.484 262.996C445.371 263.104 445.231 263.178 445.079 263.212Z" fill="#CCCCCC"/>
<path d="M450.752 259.414C450.802 260.078 449.667 260.841 448.147 261.144C446.751 261.43 445.5 261.231 445.148 260.709C445.219 260.666 445.296 260.636 445.376 260.617L450.62 259.431C450.663 259.421 450.708 259.416 450.752 259.414Z" fill="#E6E6E6"/>
<path d="M448.016 272.672L446.494 269.499C445.602 267.641 447.235 265.663 450.133 265.092L453.705 264.488L455.199 274.944L454.89 275.005C451.991 275.577 448.908 274.53 448.016 272.672Z" fill="#0467B0"/>
<g opacity="0.2">
<path d="M484.33 272.613C484.184 273.919 483.607 275.138 482.69 276.078C481.773 277.017 480.569 277.623 479.269 277.799L460.561 280.338C459.45 280.489 458.318 280.318 457.301 279.846C456.283 279.374 455.421 278.621 454.816 277.675C455.344 277.036 455.997 276.513 456.735 276.139C457.474 275.765 458.281 275.548 459.107 275.501C460.714 275.418 462.271 275.953 463.845 276.252C467.651 276.97 471.587 276.316 474.957 274.405C476.419 273.555 477.737 272.468 479.343 271.862C480.95 271.261 483.025 271.281 484.189 272.455C484.239 272.505 484.287 272.558 484.33 272.613Z" fill="black"/>
</g>
<defs>
<linearGradient id="paint0_linear_3989_15883" x1="375.47" y1="128.344" x2="396.672" y2="209" gradientUnits="userSpaceOnUse">
<stop stop-color="#0467B0"/>
<stop offset="0.00467912" stop-color="#4992C5" stop-opacity="0.674198"/>
<stop offset="0.229374" stop-color="#A2C8DF" stop-opacity="0.260533"/>
<stop offset="0.416667" stop-color="#D9EAEF" stop-opacity="0"/>
<stop offset="0.454068" stop-color="#D9EAEF" stop-opacity="0.226709"/>
<stop offset="0.973958" stop-color="#D9EAEF"/>
</linearGradient>
<linearGradient id="paint1_linear_3989_15883" x1="303.173" y1="128.5" x2="310.173" y2="159.5" gradientUnits="userSpaceOnUse">
<stop stop-color="#0467B0"/>
<stop offset="0.0001" stop-color="#3686BF"/>
<stop offset="0.196704" stop-color="#73ABD1"/>
<stop offset="0.878618" stop-color="#D9EAEF" stop-opacity="0"/>
</linearGradient>
<linearGradient id="paint2_linear_3989_15883" x1="385.732" y1="201.1" x2="389.751" y2="271.261" gradientUnits="userSpaceOnUse">
<stop stop-color="#0467B0"/>
<stop offset="0.238528" stop-color="#6EA8CF"/>
<stop offset="1" stop-color="#D9EAEF"/>
</linearGradient>
<linearGradient id="paint3_linear_3989_15883" x1="531.872" y1="319.11" x2="31.4575" y2="193.26" gradientUnits="userSpaceOnUse">
<stop/>
<stop offset="1" stop-opacity="0"/>
</linearGradient>
<radialGradient id="paint4_radial_3989_15883" cx="0" cy="0" r="1" gradientUnits="userSpaceOnUse" gradientTransform="translate(130 44) rotate(87.3575) scale(38.1739)">
<stop stop-color="#EEC004"/>
<stop offset="1" stop-color="#E2983A" stop-opacity="0"/>
</radialGradient>
<linearGradient id="paint5_linear_3989_15883" x1="178.388" y1="93" x2="199.59" y2="173.656" gradientUnits="userSpaceOnUse">
<stop stop-color="#0467B0"/>
<stop offset="0.00467912" stop-color="#4992C5" stop-opacity="0.674198"/>
<stop offset="0.229374" stop-color="#A2C8DF" stop-opacity="0.260533"/>
<stop offset="0.416667" stop-color="#D9EAEF" stop-opacity="0"/>
<stop offset="0.454068" stop-color="#D9EAEF" stop-opacity="0.226709"/>
<stop offset="0.973958" stop-color="#D9EAEF"/>
</linearGradient>
<radialGradient id="paint6_radial_3989_15883" cx="0" cy="0" r="1" gradientUnits="userSpaceOnUse" gradientTransform="translate(129.216 43.5926) rotate(89.3845) scale(26.4089 25.4488)">
<stop stop-color="#F8CE67"/>
<stop offset="1" stop-color="#F4CE71" stop-opacity="0"/>
<stop offset="1" stop-color="#F4CE71" stop-opacity="0"/>
</radialGradient>
<radialGradient id="paint7_radial_3989_15883" cx="0" cy="0" r="1" gradientUnits="userSpaceOnUse" gradientTransform="translate(129.216 43.5926) rotate(89.3845) scale(26.4089 25.4488)">
<stop stop-color="#F4CE71"/>
<stop offset="1" stop-color="#F4CE71" stop-opacity="0"/>
<stop offset="1" stop-color="#F4CE71" stop-opacity="0"/>
</radialGradient>
<linearGradient id="paint8_linear_3989_15883" x1="428.045" y1="553.232" x2="-5.08165e-05" y2="267.237" gradientUnits="userSpaceOnUse">
<stop/>
<stop offset="1" stop-opacity="0"/>
</linearGradient>
</defs>
</svg>
