<svg xmlns="http://www.w3.org/2000/svg" width="15" height="15" fill="none" viewBox="0 0 20 20">
  <path fill="#94989B" d="m19.94 18.562-6.493-6.492A7.432 7.432 0 0 0 15 7.5a7.455 7.455 0 0 0-2.198-5.303A7.445 7.445 0 0 0 7.5 0a7.455 7.455 0 0 0-5.303 2.197A7.44 7.44 0 0 0 0 7.5c0 2.002.782 3.887 2.197 5.302A7.44 7.44 0 0 0 7.5 15a7.438 7.438 0 0 0 4.567-1.55l6.493 6.49a.206.206 0 0 0 .29 0l1.09-1.088a.203.203 0 0 0 .044-.223.206.206 0 0 0-.044-.067Zm-8.48-7.102A5.57 5.57 0 0 1 7.5 13.1a5.57 5.57 0 0 1-3.96-1.64A5.57 5.57 0 0 1 1.9 7.5c0-1.495.582-2.903 1.64-3.96A5.57 5.57 0 0 1 7.5 1.9c1.495 0 2.902.58 3.96 1.64A5.57 5.57 0 0 1 13.1 7.5a5.566 5.566 0 0 1-1.64 3.96Z"/>
</svg>
