<svg xmlns="http://www.w3.org/2000/svg" width="78" height="78" fill="none" viewBox="0 0 78 78">
  <path fill="#0A66C2" d="M71.725.5H6.275A5.775 5.775 0 0 0 .5 6.275v65.45A5.775 5.775 0 0 0 6.275 77.5h65.45a5.775 5.775 0 0 0 5.775-5.775V6.275A5.775 5.775 0 0 0 71.725.5ZM23.6 65.95H12.05V31.3H23.6v34.65Zm-5.775-41.388a6.737 6.737 0 1 1 6.93-6.737 6.853 6.853 0 0 1-6.93 6.738ZM65.95 65.95H54.4V47.701c0-5.467-2.31-7.43-5.313-7.43a6.699 6.699 0 0 0-6.237 7.16c-.02.18-.02.36 0 .54V65.95H31.3V31.3h11.165v5.005a11.974 11.974 0 0 1 10.395-5.39c5.968 0 12.936 3.311 12.936 14.091l.154 20.944Z"/>
</svg>
